HIERARCHY
ROOT hip
{
	OFFSET 0.000000 0.000000 0.000000 
	CHANNELS 6 Xposition Yposition Zposition Xrotation Zrotation Yrotation
	JOINT abdomen
	{
		OFFSET 0.000000 3.402643 0.000000 
		CHANNELS 3 Xrotation Zrotation Yrotation
		JOINT chest
		{
			OFFSET 0.000000 8.438565 -0.680529 
			CHANNELS 3 Xrotation Zrotation Yrotation
			JOINT neck
			{
				OFFSET 0.000000 10.207942 -0.272212 
				CHANNELS 3 Xrotation Zrotation Yrotation
				JOINT head
				{
					OFFSET 0.000000 3.130431 0.000000 
					CHANNELS 3 Xrotation Zrotation Yrotation
					End Site
					{
						OFFSET 0.000000 3.130435 0.000000 
					}
				}
			}
			JOINT lCollar
			{
				OFFSET 3.470700 6.669187 -0.816635 
				CHANNELS 3 Yrotation Zrotation Xrotation
				JOINT lShldr
				{
					OFFSET 3.198488 0.000000 0.000000 
					CHANNELS 3 Zrotation Yrotation Xrotation
					JOINT lForeArm
					{
						OFFSET 10.139888 0.000000 0.000000 
						CHANNELS 3 Yrotation Zrotation Xrotation
						JOINT lHand
						{
							OFFSET 8.370511 0.000000 0.000000 
							CHANNELS 3 Zrotation Yrotation Xrotation
							End Site
							{
								OFFSET 4.083176 0.000000 0.000000 
							}
						}
					}
				}
			}
			JOINT rCollar
			{
				OFFSET -3.470700 6.669187 -0.816635 
				CHANNELS 3 Yrotation Zrotation Xrotation
				JOINT rShldr
				{
					OFFSET -3.198488 0.000000 0.000000 
					CHANNELS 3 Zrotation Yrotation Xrotation
					JOINT rForeArm
					{
						OFFSET -10.139888 0.000000 0.000000 
						CHANNELS 3 Yrotation Zrotation Xrotation
						JOINT rHand
						{
							OFFSET -8.370511 0.000000 0.000000 
							CHANNELS 3 Zrotation Yrotation Xrotation
							End Site
							{
								OFFSET -4.083176 0.000000 0.000000 
							}
						}
					}
				}
			}
		}
	}
	JOINT lThigh
	{
		OFFSET 5.308129 -1.633274 1.361059 
		CHANNELS 3 Xrotation Zrotation Yrotation
		JOINT lShin
		{
			OFFSET -2.041588 -20.007561 0.000000 
			CHANNELS 3 Xrotation Zrotation Yrotation
			JOINT lFoot
			{
				OFFSET 0.000000 -19.190928 -1.224953 
				CHANNELS 3 Xrotation Yrotation Zrotation
				End Site
				{
					OFFSET 0.000000 -2.449906 4.627600 
				}
			}
		}
	}
	JOINT rThigh
	{
		OFFSET -5.308129 -1.633274 1.361059 
		CHANNELS 3 Xrotation Zrotation Yrotation
		JOINT rShin
		{
			OFFSET 2.041588 -20.007561 0.000000 
			CHANNELS 3 Xrotation Zrotation Yrotation
			JOINT rFoot
			{
				OFFSET 0.000000 -19.190928 -1.224953 
				CHANNELS 3 Xrotation Yrotation Zrotation
				End Site
				{
					OFFSET 0.000000 -2.449906 4.627600 
				}
			}
		}
	}
}
MOTION
Frames: 18
Frame Time: 0.011111
3.090446 47.900040 -71.542274 -3.538133 1.366276 -85.288132 65.249802 6.345524 8.987129 -30.927929 8.792339 -0.763432 -13.770495 -5.809128 -4.141920 34.214458 -4.594061 -13.170611 2.656661 -4.973740 1.830115 -73.893982 -22.073347 26.494585 -74.617790 8.347261 19.423334 8.524705 12.647240 -37.395885 -4.438679 -1.473473 2.444106 64.970428 58.307972 -14.805605 51.272820 -7.988571 8.680220 -8.534408 -12.637552 68.148293 -34.647797 15.497677 -7.080775 54.846191 -3.305296 -7.684254 -2.566686 -15.953872 -4.783496 -26.667427 -23.064785 6.501018 46.708473 4.064945 6.842587 -23.128635 -9.144804 -1.019873 
3.043230 47.910767 -70.934303 -1.997314 -0.278554 -85.813629 67.319748 7.303717 10.988746 -31.153589 7.671431 -0.614028 -13.828266 -5.796400 -4.189694 34.292850 -4.483295 -13.226188 2.656661 -4.973740 1.830115 -74.181648 -21.734823 25.633575 -74.434975 8.392425 19.333424 8.524705 12.647240 -38.040417 -4.438679 -1.473473 2.444106 64.986862 57.612347 -17.290413 52.028103 -8.145307 8.986298 -8.534408 -12.637552 71.175636 -33.236992 17.292664 -5.942779 55.727936 -3.189756 -7.776210 -1.655997 -18.192598 -4.812098 -23.468777 -21.888941 6.201658 44.866814 4.247868 6.623014 -22.531483 -8.970947 -0.798251 
2.951559 47.959515 -70.211365 -1.950011 0.520829 -86.940361 65.938812 7.027050 11.151043 -30.604345 7.842596 -0.426969 -13.501726 -6.324968 -3.894399 34.038162 -4.752795 -12.864402 2.656661 -4.973740 1.830115 -75.372673 -21.199909 25.431957 -74.312721 8.421472 19.268890 8.524705 12.647240 -36.546276 -4.438679 -1.473473 2.444106 63.875015 56.840309 -19.285210 52.595089 -8.256761 9.224585 -8.534408 -12.637552 73.841652 -33.095669 15.484780 -6.497143 56.609230 -3.093769 -7.857169 -3.752048 -17.116333 -5.286797 -24.309702 -23.061680 7.058672 43.713268 4.338661 6.520051 -21.971424 -8.309916 -0.459255 
2.981912 47.879494 -69.692299 -1.603467 0.858720 -86.558105 65.454079 7.271795 11.482009 -30.617723 7.451333 -0.339343 -13.942019 -6.083324 -4.209231 34.708897 -4.370516 -13.398954 2.656661 -4.973740 1.830115 -75.062141 -21.031172 25.732656 -74.015228 8.487889 19.116282 8.524705 12.647240 -36.448620 -4.438679 -1.473473 2.444106 63.637459 55.899559 -21.633085 53.184124 -8.367431 9.467137 -8.534408 -12.637552 75.521339 -33.799690 15.651014 -5.651153 57.343681 -3.013866 -7.914052 -2.378421 -17.903646 -4.999544 -23.986641 -23.344143 6.775300 42.617695 4.436759 6.404335 -21.324337 -8.956982 -0.510864 
2.929484 47.853741 -69.179680 -1.298716 0.776991 -86.929581 65.360359 7.134623 11.603845 -30.399778 7.370045 -0.268112 -13.779698 -5.755660 -4.083667 34.641792 -4.747654 -13.141245 2.656661 -4.973740 1.830115 -75.165062 -20.813917 25.448936 -73.656952 8.566777 18.925467 8.524705 12.647240 -37.102913 -4.438679 -1.473473 2.444106 63.395241 55.350422 -23.461435 53.531738 -8.430160 9.604531 -8.534408 -12.637552 75.960793 -33.482399 16.345947 -3.517589 57.910816 -2.954313 -7.977076 -2.839542 -19.046833 -5.315093 -23.440548 -23.364281 7.343856 41.582043 4.514947 6.275258 -20.954956 -10.138294 -0.782864 
2.858355 47.887775 -68.534912 -0.968976 0.717863 -87.102661 65.365402 8.168702 11.402768 -30.191595 4.369902 -0.242434 -13.155834 -3.279335 -3.597293 33.904758 -5.773918 -11.454975 2.656661 -4.973740 1.830115 -72.842987 -20.347841 24.710823 -73.409760 8.617720 18.798311 8.524705 12.647240 -37.307999 -4.438679 -1.473473 2.444106 66.108986 54.741608 -23.982620 53.827419 -8.486618 9.740172 -8.534408 -12.637552 75.501816 -32.915974 14.910666 -4.916150 58.233566 -2.925072 -8.006915 -5.993800 -16.674208 -5.832091 -22.911800 -23.656048 7.740295 40.693157 4.583299 6.173048 -20.456877 -10.118874 -0.664571 
2.857129 47.903412 -67.989799 -0.581781 0.932045 -87.227707 65.058838 8.209879 11.440079 -30.277628 5.346912 -0.316306 -13.831115 -4.204159 -3.755755 34.538246 -5.383202 -12.097654 2.656661 -4.973740 1.830115 -73.978661 -19.971264 24.488884 -72.965088 8.703811 18.568289 8.524705 12.647240 -37.425182 -4.438679 -1.473473 2.444106 64.475250 54.049267 -24.936262 53.933342 -8.506650 9.782712 -8.534408 -12.637552 75.618996 -32.793659 14.244811 -5.473048 58.301888 -2.916926 -8.017735 -7.597001 -15.438511 -6.011168 -22.682806 -23.718649 8.337451 39.744869 4.651758 6.056056 -19.889923 -10.904435 -0.753248 
2.849463 47.878880 -67.447128 -0.248242 0.805972 -87.604126 65.016418 7.591121 11.919375 -30.401070 6.752986 -0.235213 -13.985467 -4.710574 -3.840504 35.019390 -5.972199 -12.762389 2.656661 -4.973740 1.830115 -75.205971 -19.728678 25.239058 -72.344124 8.817887 18.250025 8.524705 12.647240 -36.946671 -4.438679 -1.473473 2.444106 62.358994 53.107246 -26.061281 54.418034 -8.586801 9.988330 -8.534408 -12.637552 77.132668 -32.315838 15.347845 -2.419986 58.301834 -2.907010 -8.022129 -7.484783 -17.363470 -6.396230 -22.135786 -23.777132 9.059494 38.744576 4.739651 5.940319 -19.415375 -11.052544 -0.668201 
2.808075 47.883484 -66.804512 -0.302017 0.747653 -87.926033 64.935791 7.743304 11.424326 -30.141283 6.401347 -0.320228 -13.911142 -4.125105 -3.287017 34.673668 -6.918242 -11.683757 2.656661 -4.973740 1.830115 -75.239120 -19.483706 24.846247 -71.898933 8.896312 18.029404 8.524705 12.647240 -36.663460 -4.438679 -1.473473 2.444106 62.424786 52.576756 -25.424183 55.167515 -8.705120 10.305041 -8.534408 -12.637552 79.310410 -31.418133 14.596128 -1.433981 58.156002 -2.926427 -7.982102 -9.239245 -16.722263 -6.735407 -21.842138 -24.401627 9.800070 37.814152 4.807723 5.823059 -18.792967 -11.553087 -0.648163 
2.774043 47.918129 -66.165878 -0.294475 0.795840 -88.122665 64.543083 7.617875 11.460640 -30.030724 6.185273 -0.237366 -13.917228 -3.997112 -3.539278 34.617710 -6.720092 -12.065287 2.656661 -4.973740 1.830115 -75.072861 -19.155376 25.336763 -71.301994 8.983518 17.725071 8.524705 12.647240 -36.868542 -4.438679 -1.473473 2.444106 61.992184 51.535355 -25.478191 56.045818 -8.835906 10.680172 -8.534408 -12.637552 81.908058 -30.704760 13.268169 -1.749298 57.950302 -2.964006 -7.966078 -11.337475 -14.954825 -6.774032 -21.639774 -24.940800 10.736718 36.942509 4.867010 5.716437 -18.047358 -12.496662 -0.687646 
2.736331 47.956757 -65.545952 -0.313861 0.648139 -88.682884 64.420158 7.177125 11.329534 -30.065512 6.653385 -0.209957 -13.395241 -3.516654 -3.126587 34.216438 -8.028812 -11.449934 2.656661 -4.973740 1.830115 -75.270615 -18.789421 25.944778 -70.654259 9.075202 17.403130 8.524705 12.647240 -36.487682 -4.438679 -1.473473 2.444106 61.111191 50.587296 -25.351223 57.063496 -8.972768 11.117174 -8.534408 -12.637552 84.290871 -29.667908 12.574001 -1.051602 57.578537 -2.996567 -7.933830 -12.260056 -14.315806 -6.791314 -21.362616 -25.553324 11.337274 35.861988 4.929261 5.612012 -16.075169 -13.569559 -0.372332 
2.706286 47.969940 -64.905479 -0.653272 0.462550 -89.374245 64.440613 6.691943 10.657275 -30.282536 6.707609 -0.262813 -13.418699 -3.762843 -3.016000 34.401680 -7.758010 -11.252136 2.656661 -4.973740 1.830115 -75.590164 -18.176426 25.589613 -70.098534 9.145245 17.134340 8.524705 12.647240 -36.565815 -4.438679 -1.473473 2.444106 61.066120 49.650028 -24.923990 58.391888 -9.130125 11.698214 -8.534408 -12.637552 85.658066 -28.430658 11.539928 -0.367221 57.147888 -3.033217 -7.898635 -12.991920 -13.860279 -6.809711 -21.459957 -26.148731 13.181738 35.237549 4.974064 5.502607 -15.056849 -14.780695 -0.327895 
2.645273 48.111588 -64.161079 0.040714 0.165912 -89.709732 64.675789 7.376939 11.400687 -30.326668 6.296003 -0.246253 -13.259803 -3.491642 -2.548863 34.461338 -8.601420 -10.501143 2.656661 -4.973740 1.830115 -75.739784 -17.860374 25.815563 -69.457466 9.216599 16.815331 8.524705 12.647240 -36.497452 -4.438679 -1.473473 2.444106 60.678745 48.714474 -25.049532 59.455486 -9.233908 12.173788 -8.534408 -12.637552 85.150246 -27.341381 9.628060 -3.732801 56.550716 -3.119610 -7.836700 -15.247238 -10.540529 -6.148330 -20.876450 -25.838106 14.224141 34.599606 5.033396 5.434191 -14.701633 -16.293941 -0.496142 
2.727134 48.031567 -63.702412 -0.114328 0.399687 -90.704414 64.233360 5.887285 11.282967 -30.609680 6.938758 -0.011566 -13.702013 -3.746796 -2.910980 35.299191 -8.020278 -11.304217 2.656661 -4.973740 1.830115 -75.682571 -17.549105 26.348387 -68.727859 9.281616 16.459120 8.524705 12.647240 -36.712292 -4.438679 -1.473473 2.444106 60.192448 47.655010 -27.050566 60.583115 -9.319760 12.670896 -8.534408 -12.637552 81.546738 -26.977478 11.414008 1.490502 56.060879 -3.176572 -7.796818 -14.901369 -14.223278 -7.320062 -21.950695 -25.789572 16.320166 34.401600 5.042880 5.400253 -14.337355 -17.926783 -0.642999 
2.702607 48.078167 -63.006756 0.073744 0.303336 -90.934181 64.038139 6.102631 11.680906 -30.520813 6.145864 0.110959 -13.585228 -3.070902 -2.971151 35.375839 -8.316692 -11.290051 2.656661 -4.973740 1.830115 -75.246536 -17.451694 26.785652 -67.850746 9.349915 16.038263 8.524705 12.647240 -37.229870 -4.438679 -1.473473 2.444106 60.497234 46.520569 -27.106714 62.139130 -9.407902 13.369106 -8.534408 -12.637552 82.982285 -26.229795 10.263704 1.008875 55.472839 -3.250481 -7.747196 -16.995275 -12.588301 -7.151656 -22.052189 -25.912743 17.001997 34.212730 5.057881 5.368739 -13.309219 -19.925819 -0.576447 
2.666430 48.154202 -62.356171 0.090004 0.196591 -91.628036 63.836189 5.607271 11.974924 -30.507610 5.880006 0.311901 -13.284541 -2.326638 -3.002262 35.339844 -9.013220 -11.316363 2.656661 -4.973740 1.830115 -74.926018 -17.244108 27.623606 -67.129936 9.391562 15.687399 8.524705 12.647240 -37.571667 -4.438679 -1.473473 2.444106 60.481407 45.230560 -26.993740 64.240669 -9.465219 14.343896 -8.534408 -12.637552 84.769386 -25.258945 9.138614 0.137772 54.836708 -3.297183 -7.679501 -17.224815 -12.229516 -7.046526 -22.576834 -25.956392 17.674782 34.401974 5.037338 5.408349 -12.175363 -22.179632 -0.405750 
2.743383 48.246796 -61.816872 0.210302 0.735909 -91.899719 62.953033 5.122001 11.972221 -30.527514 5.942486 0.457390 -13.249382 -1.547935 -3.026474 35.684696 -9.539021 -11.351476 2.656661 -4.973740 1.830115 -74.201622 -17.035789 28.792013 -66.631485 9.416122 15.457883 8.524705 12.647240 -37.337292 -4.438679 -1.473473 2.444106 60.613720 43.935658 -26.697350 66.941628 -9.407367 15.607515 -8.534408 -12.637552 87.142433 -25.450407 8.629876 -0.462419 54.189827 -3.373512 -7.615333 -16.681240 -12.814034 -7.167230 -23.615026 -25.610912 18.110403 34.620998 5.022845 5.423897 -11.261678 -24.168522 -0.219515 
2.722229 48.325890 -61.190205 0.501434 0.830124 -92.242165 62.534775 5.342374 11.910022 -30.280602 5.786951 0.447365 -13.296867 -1.269464 -2.769826 35.982082 -9.942497 -10.927711 2.656661 -4.973740 1.830115 -74.010483 -16.874002 28.871794 -66.217064 9.430827 15.256952 8.524705 12.647240 -37.434948 -4.438679 -1.473473 2.444106 60.488026 43.099125 -26.194056 69.448700 -9.221929 16.824678 -8.534408 -12.637552 88.568214 -25.169445 8.904107 0.876255 53.640915 -3.439569 -7.553337 -15.613637 -14.497479 -7.573752 -24.074244 -25.279125 17.816637 35.027035 5.003885 5.482852 -11.010179 -25.557848 -0.213724 
